<svg xmlns="http://www.w3.org/2000/svg" viewBox="0 0 24 24" aria-hidden="true">
  <path fill="#fff" d="M15.07 2H8.93C3.33 2 2 3.33 2 8.93v6.14C2 20.67 3.33 22 8.93 22h6.14c5.6 0 6.93-1.33 6.93-6.93V8.93C22 3.33 20.67 2 15.07 2Zm3.08 14.27h-1.46c-.55 0-.72-.44-1.71-1.43-.86-.83-1.24-.94-1.45-.94-.3 0-.38.08-.38.5v1.31c0 .35-.11.56-1.04.56-1.54 0-3.24-.93-4.43-2.66-1.8-2.53-2.29-4.44-2.29-4.83 0-.21.08-.41.5-.41h1.46c.38 0 .52.17.66.56.73 2.09 1.95 3.92 2.45 3.92.19 0 .28-.09.28-.57v-2.22c-.06-1.02-.6-1.11-.6-1.47 0-.18.15-.35.39-.35h2.29c.31 0 .42.17.42.54v3c0 .32.15.43.24.43.19 0 .35-.11.69-.46.92-1.03 1.58-2.62 1.58-2.62.1-.23.27-.45.65-.45h1.46c.44 0 .54.22.44.53-.18.84-1.93 3.3-1.93 3.3-.16.26-.23.39 0 .69.17.22.72.7 1.09 1.13.66.76 1.17 1.4 1.3 1.84.14.43-.07.65-.48.65Z"/>
</svg>
